<?xml version="1.0" encoding="utf-8"?>
<!-- Generator: Adobe Illustrator 16.0.0, SVG Export Plug-In . SVG Version: 6.00 Build 0)  -->
<!DOCTYPE svg PUBLIC "-//W3C//DTD SVG 1.1//EN" "http://www.w3.org/Graphics/SVG/1.1/DTD/svg11.dtd">
<svg version="1.1" id="레이어_1" xmlns="http://www.w3.org/2000/svg" xmlns:xlink="http://www.w3.org/1999/xlink" x="0px"
	 y="0px" width="289.563px" height="72.096px" viewBox="0 0 289.563 72.096" enable-background="new 0 0 289.563 72.096"
	 xml:space="preserve">
<g>
	<polygon fill="#24300F" points="143.44,65.265 143.44,58.002 136.62,58.002 136.62,72.096 161.082,72.096 161.082,65.265 	"/>
	<polygon fill="#24300F" points="39.189,45.175 50.239,45.175 50.239,52 57.058,52 57.058,45.175 68.111,45.175 68.111,38.357 
		39.189,38.357 	"/>
	<polygon fill="#24300F" points="24.415,34.228 17.571,21.373 22.666,21.373 22.666,14.911 1.312,14.911 1.312,21.373 6.792,21.373 
		0,34.221 5.728,37.507 12.255,25.09 18.699,37.507 	"/>
	<polygon fill="#24300F" points="65.859,31.828 59.013,20.505 64.109,20.505 64.109,14.042 42.754,14.042 42.754,20.505 
		48.236,20.505 41.442,31.818 47.171,35.275 53.699,24.57 60.143,35.275 	"/>
	<polygon fill="#24300F" points="20.747,46.09 13.505,46.09 13.505,60.187 36.545,60.187 36.545,53.356 20.747,53.356 	"/>
	<path fill="#3AAE36" d="M138.75,13.559c-6.17,0-11.186,5.017-11.186,11.183c0,6.17,5.016,11.184,11.186,11.184
		c6.165,0,11.18-5.014,11.18-11.184C149.93,18.576,144.915,13.559,138.75,13.559z M138.75,28.997c-2.346,0-4.255-1.907-4.255-4.255
		c0-2.342,1.909-4.25,4.255-4.25c2.343,0,4.249,1.908,4.249,4.25C142.999,27.089,141.093,28.997,138.75,28.997z"/>
	<path fill="#3AAE36" d="M100.635,35.442h21.406V14.042h-21.406V35.442z M107.457,20.862h7.766v7.764h-7.766V20.862z"/>
	<polygon fill="#24300F" points="140.634,50.694 140.634,45.175 154.263,45.175 154.263,48.306 147.122,48.306 147.122,55.125 
		154.263,55.125 154.263,58.861 161.082,58.861 161.082,14.042 154.263,14.042 154.263,38.357 128.079,38.357 128.079,45.175 
		133.813,45.175 133.813,50.694 	"/>
	<polygon fill="#24300F" points="78.2,6.821 94.101,6.821 94.101,0 71.38,0 71.38,14.366 78.2,14.366 	"/>
	<path fill="#24300F" d="M82.798,38.355c-6.447,0-11.694,5.245-11.694,11.691c0,6.45,5.247,11.696,11.694,11.696
		c6.448,0,11.695-5.246,11.695-11.696C94.493,43.6,89.246,38.355,82.798,38.355z M82.798,54.498c-2.45,0-4.444-1.998-4.444-4.451
		c0-2.449,1.994-4.442,4.444-4.442c2.451,0,4.447,1.993,4.447,4.442C87.245,52.5,85.249,54.498,82.798,54.498z"/>
	<polygon fill="#24300F" points="32.571,13.989 29.725,13.989 29.725,21.643 29.725,22.83 24.557,22.83 24.557,29.646 
		29.725,29.646 29.725,30.892 29.725,45.175 36.545,45.175 36.545,20.802 36.545,19.234 36.545,17.962 36.545,13.989 	"/>
	<polygon fill="#24300F" points="125.475,45.175 125.475,38.357 97.201,38.357 97.201,45.175 107.932,45.175 107.932,50.694 
		107.26,50.694 106.999,50.694 106.739,50.694 99.921,50.694 99.921,54.048 99.921,54.305 99.921,57.291 111.529,57.291 
		98.862,65.588 98.862,72.096 123.812,72.096 123.812,65.588 110.393,65.588 123.102,57.291 123.102,50.694 114.746,50.694 
		114.746,45.175 	"/>
	<g>
		<g>
			<path fill="#24300F" d="M182.453,25.634c0,1.113-0.262,2.068-0.787,2.854c-0.526,0.785-1.216,1.373-2.064,1.763
				c-0.85,0.391-1.758,0.584-2.731,0.584c-0.56,0-1.075-0.049-1.547-0.156c-0.47-0.105-0.899-0.271-1.286-0.5
				c-0.385-0.227-0.784-0.549-1.2-0.961l2.396-2.377c0.29,0.281,0.543,0.473,0.754,0.587c0.213,0.112,0.515,0.167,0.894,0.167
				c0.583,0,1.052-0.17,1.407-0.512c0.352-0.347,0.527-0.855,0.527-1.533v-9.655h3.639V25.634z"/>
			<path fill="#24300F" d="M195.232,30.714h-10.068V15.895h10.068v3.247h-6.431v2.474h5.495v3.245h-5.495v2.611h6.431V30.714z"/>
			<path fill="#24300F" d="M208.522,23.304v0.497c0,0.826-0.027,1.542-0.086,2.134c-0.059,0.602-0.198,1.178-0.41,1.731
				c-0.217,0.554-0.549,1.054-0.996,1.503c-0.549,0.547-1.153,0.963-1.812,1.246c-0.661,0.281-1.438,0.42-2.334,0.42
				c-0.6,0-1.141-0.059-1.626-0.186c-0.483-0.127-0.931-0.314-1.342-0.559c-0.409-0.24-0.796-0.549-1.165-0.922
				c-0.644-0.65-1.061-1.389-1.237-2.216c-0.174-0.825-0.261-1.876-0.261-3.152v-0.497v-0.496c0-1.271,0.087-2.328,0.261-3.156
				c0.177-0.826,0.593-1.566,1.237-2.219c0.563-0.561,1.17-0.979,1.826-1.25c0.65-0.271,1.424-0.409,2.307-0.409
				c0.896,0,1.669,0.138,2.329,0.413c0.657,0.274,1.262,0.688,1.817,1.246c0.446,0.445,0.778,0.949,0.996,1.51
				c0.212,0.561,0.351,1.133,0.41,1.73c0.059,0.601,0.086,1.31,0.086,2.135V23.304z M204.885,23.304
				c0-1.262-0.042-2.119-0.129-2.581c-0.084-0.458-0.219-0.81-0.409-1.054c-0.136-0.19-0.335-0.346-0.598-0.469
				c-0.26-0.123-0.547-0.185-0.868-0.185c-0.31,0-0.592,0.06-0.843,0.18c-0.249,0.115-0.455,0.272-0.608,0.474
				c-0.121,0.15-0.222,0.346-0.3,0.572c-0.078,0.225-0.133,0.574-0.179,1.049c-0.04,0.47-0.058,1.141-0.058,2.014
				c0,0.869,0.018,1.541,0.058,2.008c0.045,0.472,0.101,0.817,0.179,1.042c0.079,0.225,0.179,0.413,0.3,0.567
				c0.347,0.452,0.83,0.674,1.452,0.674c0.632,0,1.121-0.222,1.466-0.674c0.189-0.264,0.324-0.617,0.409-1.058
				C204.843,25.417,204.885,24.566,204.885,23.304z"/>
			<path fill="#24300F" d="M222.534,30.714h-3.183l-4.743-7.449v7.449h-3.64V15.895h3.185l4.741,7.449v-7.449h3.639V30.714z"/>
			<path fill="#24300F" d="M233.403,25.634c0,1.113-0.259,2.068-0.784,2.854c-0.524,0.785-1.215,1.373-2.064,1.763
				c-0.849,0.391-1.757,0.584-2.728,0.584c-0.563,0-1.079-0.049-1.552-0.156c-0.469-0.105-0.896-0.271-1.282-0.5
				c-0.387-0.227-0.787-0.549-1.2-0.961l2.393-2.377c0.291,0.281,0.544,0.473,0.759,0.587c0.214,0.112,0.508,0.167,0.89,0.167
				c0.585,0,1.048-0.17,1.402-0.512c0.357-0.347,0.533-0.855,0.533-1.533v-9.655h3.634V25.634z"/>
			<path fill="#24300F" d="M247.102,25.511c0,0.775-0.145,1.497-0.437,2.166c-0.293,0.665-0.699,1.23-1.222,1.704
				c-0.521,0.476-1.124,0.837-1.808,1.085c-0.684,0.245-1.409,0.369-2.175,0.369c-1.008,0-1.944-0.22-2.809-0.66
				c-0.864-0.441-1.544-1.066-2.042-1.875c-0.497-0.811-0.747-1.736-0.747-2.789v-9.616h3.637v9.538
				c0,0.675,0.176,1.201,0.526,1.588c0.35,0.382,0.831,0.574,1.443,0.574c0.393,0,0.74-0.087,1.045-0.255
				c0.31-0.171,0.539-0.419,0.706-0.742c0.161-0.323,0.243-0.716,0.243-1.165v-9.538h3.638V25.511z"/>
			<path fill="#24300F" d="M263.49,30.714h-10.051V27.88l5.685-8.738h-5.432v-3.247h9.798v2.828l-5.707,8.749h5.707V30.714z"/>
			<path fill="#24300F" d="M276.323,23.304v0.497c0,0.826-0.033,1.542-0.088,2.134c-0.059,0.602-0.193,1.178-0.41,1.731
				c-0.216,0.554-0.549,1.054-0.994,1.503c-0.549,0.547-1.155,0.963-1.812,1.246c-0.66,0.281-1.439,0.42-2.332,0.42
				c-0.601,0-1.145-0.059-1.63-0.186c-0.484-0.127-0.932-0.314-1.337-0.559c-0.413-0.24-0.801-0.549-1.165-0.922
				c-0.651-0.65-1.064-1.389-1.241-2.216c-0.172-0.825-0.263-1.876-0.263-3.152v-0.497v-0.496c0-1.271,0.091-2.328,0.263-3.156
				c0.177-0.826,0.59-1.566,1.241-2.219c0.561-0.561,1.169-0.979,1.823-1.25c0.651-0.271,1.425-0.409,2.309-0.409
				c0.893,0,1.669,0.138,2.327,0.413c0.653,0.274,1.263,0.688,1.816,1.246c0.445,0.445,0.778,0.949,0.994,1.51
				c0.217,0.561,0.352,1.133,0.41,1.73c0.055,0.601,0.088,1.31,0.088,2.135V23.304z M272.685,23.304
				c0-1.262-0.042-2.119-0.129-2.581c-0.082-0.458-0.222-0.81-0.41-1.054c-0.135-0.19-0.333-0.346-0.594-0.469
				s-0.548-0.185-0.869-0.185c-0.312,0-0.594,0.06-0.844,0.18c-0.252,0.115-0.453,0.272-0.608,0.474
				c-0.122,0.15-0.222,0.346-0.298,0.572c-0.081,0.225-0.141,0.574-0.18,1.049c-0.041,0.47-0.064,1.141-0.064,2.014
				c0,0.869,0.023,1.541,0.064,2.008c0.039,0.472,0.099,0.817,0.18,1.042c0.076,0.225,0.176,0.413,0.298,0.567
				c0.342,0.452,0.829,0.674,1.452,0.674c0.632,0,1.119-0.222,1.463-0.674c0.188-0.264,0.328-0.617,0.41-1.058
				C272.643,25.417,272.685,24.566,272.685,23.304z"/>
			<path fill="#24300F" d="M289.563,23.304v0.497c0,0.826-0.025,1.542-0.088,2.134c-0.058,0.602-0.194,1.178-0.41,1.731
				c-0.215,0.554-0.547,1.054-0.997,1.503c-0.549,0.547-1.148,0.963-1.811,1.246c-0.658,0.281-1.437,0.42-2.329,0.42
				c-0.6,0-1.146-0.059-1.629-0.186c-0.485-0.127-0.932-0.314-1.342-0.559c-0.409-0.24-0.798-0.549-1.162-0.922
				c-0.651-0.65-1.062-1.389-1.238-2.216c-0.177-0.825-0.264-1.876-0.264-3.152v-0.497v-0.496c0-1.271,0.087-2.328,0.264-3.156
				c0.177-0.826,0.587-1.566,1.238-2.219c0.56-0.561,1.17-0.979,1.826-1.25c0.649-0.271,1.421-0.409,2.307-0.409
				c0.893,0,1.668,0.138,2.323,0.413c0.657,0.274,1.263,0.688,1.816,1.246c0.45,0.445,0.782,0.949,0.997,1.51
				c0.216,0.561,0.353,1.133,0.41,1.73c0.063,0.601,0.088,1.31,0.088,2.135V23.304z M285.925,23.304
				c0-1.262-0.043-2.119-0.125-2.581c-0.087-0.458-0.221-0.81-0.415-1.054c-0.135-0.19-0.334-0.346-0.591-0.469
				c-0.262-0.123-0.554-0.185-0.87-0.185c-0.313,0-0.596,0.06-0.847,0.18c-0.251,0.115-0.45,0.272-0.608,0.474
				c-0.123,0.15-0.222,0.346-0.3,0.572c-0.077,0.225-0.137,0.574-0.178,1.049c-0.04,0.47-0.063,1.141-0.063,2.014
				c0,0.869,0.023,1.541,0.063,2.008c0.041,0.472,0.101,0.817,0.178,1.042c0.078,0.225,0.177,0.413,0.3,0.567
				c0.345,0.452,0.83,0.674,1.455,0.674c0.63,0,1.115-0.222,1.461-0.674c0.194-0.264,0.328-0.617,0.415-1.058
				C285.882,25.417,285.925,24.566,285.925,23.304z"/>
		</g>
		<g>
			<path fill="#24300F" d="M182.985,48.65c0,0.627-0.123,1.21-0.37,1.729c-0.246,0.524-0.603,0.968-1.067,1.335
				c-0.466,0.367-1.007,0.646-1.624,0.828c-0.618,0.188-1.302,0.279-2.049,0.279c-1.085,0-2.029-0.145-2.833-0.436
				c-0.802-0.291-1.538-0.773-2.207-1.447l1.442-1.424c0.316,0.324,0.667,0.59,1.047,0.801c0.384,0.206,0.786,0.354,1.216,0.438
				c0.428,0.087,0.886,0.127,1.375,0.127c0.916,0,1.635-0.189,2.154-0.572c0.521-0.385,0.78-0.92,0.78-1.608
				c0-0.64-0.188-1.132-0.567-1.471c-0.167-0.167-0.364-0.293-0.589-0.384c-0.224-0.088-0.545-0.158-0.96-0.217l-1.677-0.235
				c-1.157-0.161-2.057-0.541-2.699-1.142c-0.689-0.64-1.035-1.546-1.035-2.705c0-0.827,0.191-1.554,0.577-2.189
				c0.383-0.625,0.932-1.121,1.646-1.467c0.715-0.344,1.558-0.52,2.524-0.52c0.958,0,1.784,0.133,2.479,0.389
				c0.694,0.256,1.342,0.666,1.94,1.227l-1.386,1.366c-0.286-0.278-0.593-0.493-0.917-0.654c-0.326-0.161-0.665-0.274-1.013-0.345
				c-0.352-0.063-0.74-0.102-1.161-0.102c-0.542,0-1.003,0.096-1.395,0.281c-0.389,0.191-0.687,0.453-0.894,0.785
				c-0.203,0.336-0.305,0.717-0.305,1.145c0,0.563,0.177,1.006,0.536,1.322c0.175,0.15,0.405,0.289,0.692,0.403
				c0.285,0.124,0.586,0.205,0.907,0.247l1.619,0.244c0.649,0.1,1.181,0.23,1.593,0.398c0.412,0.164,0.765,0.383,1.06,0.655
				C182.598,46.41,182.985,47.38,182.985,48.65z"/>
			<path fill="#24300F" d="M188.036,52.705h-2.174V38.487h2.174V52.705z"/>
			<path fill="#24300F" d="M202.447,52.705h-1.979l-6.563-10.004v10.004h-2.175V38.487h1.991l6.571,9.987v-9.987h2.154V52.705z"/>
			<path fill="#24300F" d="M215.834,48.448c-0.117,0.704-0.327,1.331-0.629,1.879c-0.304,0.552-0.67,1.01-1.111,1.378
				c-0.439,0.365-0.941,0.645-1.512,0.834c-0.57,0.189-1.174,0.283-1.818,0.283c-0.495,0-0.959-0.056-1.4-0.174
				c-0.439-0.111-0.859-0.286-1.262-0.519c-0.404-0.235-0.76-0.507-1.073-0.819c-0.443-0.455-0.76-0.941-0.956-1.45
				c-0.194-0.517-0.314-1.073-0.358-1.675c-0.046-0.603-0.07-1.463-0.07-2.588c0-0.865,0.012-1.555,0.035-2.059
				c0.022-0.504,0.074-0.973,0.156-1.394c0.081-0.423,0.212-0.817,0.4-1.185c0.186-0.367,0.448-0.729,0.793-1.078
				c0.495-0.492,1.055-0.869,1.687-1.123c0.63-0.256,1.314-0.389,2.048-0.389c1.332,0,2.45,0.377,3.349,1.133
				c0.9,0.758,1.472,1.836,1.721,3.24h-2.204c-0.167-0.746-0.501-1.336-0.989-1.776c-0.489-0.437-1.117-0.656-1.877-0.656
				c-0.417,0-0.809,0.077-1.175,0.222c-0.367,0.154-0.677,0.361-0.932,0.637c-0.188,0.205-0.333,0.417-0.438,0.627
				c-0.102,0.209-0.187,0.489-0.253,0.838c-0.063,0.346-0.107,0.734-0.133,1.169c-0.021,0.435-0.029,1.034-0.029,1.794
				c0,0.751,0.008,1.346,0.029,1.774c0.025,0.431,0.07,0.826,0.133,1.174c0.066,0.352,0.152,0.628,0.253,0.83
				c0.105,0.206,0.251,0.425,0.438,0.648c0.255,0.266,0.565,0.477,0.932,0.629c0.366,0.151,0.759,0.228,1.175,0.228
				c0.515,0,0.963-0.1,1.354-0.299c0.39-0.202,0.715-0.49,0.978-0.859c0.259-0.371,0.445-0.795,0.554-1.274H215.834z"/>
			<path fill="#24300F" d="M227.787,52.705h-9.094V38.487h9.094v1.94h-6.922v4.146h5.909v1.918h-5.909v4.273h6.922V52.705z"/>
			<path fill="#24300F" d="M240.775,52.705h-2.037v-12l-2.781,2.436v-2.254l2.781-2.399h2.037V52.705z"/>
			<path fill="#24300F" d="M253.86,42.623c0,0.554-0.092,1.094-0.271,1.627c-0.177,0.533-0.442,1.154-0.795,1.863l-3.226,6.592
				h-2.184l3.061-6.113c-0.345,0.148-0.769,0.226-1.277,0.226c-0.688,0-1.315-0.174-1.88-0.513
				c-0.567-0.342-1.015-0.829-1.342-1.455c-0.328-0.629-0.493-1.342-0.493-2.148c0-0.85,0.179-1.609,0.532-2.267
				c0.354-0.659,0.851-1.171,1.486-1.524c0.636-0.36,1.363-0.539,2.176-0.539c0.813,0,1.537,0.172,2.179,0.513
				c0.642,0.339,1.14,0.835,1.495,1.481C253.681,41.011,253.86,41.764,253.86,42.623z M251.821,42.664
				c0-0.497-0.091-0.931-0.273-1.312c-0.183-0.372-0.439-0.663-0.77-0.866c-0.332-0.199-0.709-0.301-1.13-0.301
				c-0.651,0-1.172,0.224-1.566,0.678c-0.395,0.451-0.59,1.049-0.59,1.801c0,0.697,0.192,1.285,0.58,1.752
				c0.388,0.469,0.912,0.702,1.576,0.702c0.643,0,1.165-0.218,1.569-0.657C251.62,44.022,251.821,43.421,251.821,42.664z"/>
			<path fill="#24300F" d="M264.702,40.302l-4.749,12.402h-2.194l4.77-12.402h-4.33v2.244h-1.958v-4.06h8.462V40.302z"/>
			<path fill="#24300F" d="M275.332,48.69c0,0.833-0.194,1.563-0.582,2.19c-0.387,0.631-0.914,1.115-1.582,1.446
				c-0.669,0.327-1.409,0.495-2.22,0.495c-0.801,0-1.534-0.168-2.205-0.495c-0.673-0.331-1.203-0.815-1.59-1.446
				c-0.386-0.627-0.578-1.357-0.578-2.19c0-0.773,0.182-1.437,0.547-1.989c0.365-0.555,0.834-1,1.402-1.346
				c-0.322-0.2-0.611-0.443-0.867-0.725c-0.258-0.286-0.46-0.62-0.611-1.008c-0.154-0.393-0.228-0.834-0.228-1.32
				c0-0.58,0.103-1.111,0.312-1.598c0.207-0.49,0.5-0.908,0.879-1.261c0.381-0.352,0.82-0.617,1.32-0.798
				c0.502-0.184,1.039-0.275,1.617-0.275s1.117,0.092,1.619,0.275c0.499,0.181,0.938,0.446,1.323,0.795
				c0.382,0.347,0.681,0.767,0.893,1.259c0.207,0.488,0.316,1.022,0.316,1.603c0,0.711-0.159,1.32-0.476,1.818
				c-0.314,0.506-0.729,0.92-1.242,1.234c0.569,0.353,1.04,0.796,1.405,1.336C275.148,47.229,275.332,47.898,275.332,48.69z
				 M273.272,48.654c0-0.655-0.224-1.213-0.672-1.674c-0.449-0.459-1.002-0.689-1.658-0.689c-0.65,0-1.202,0.23-1.657,0.689
				c-0.456,0.461-0.683,1.019-0.683,1.674c0,0.426,0.104,0.822,0.312,1.186c0.21,0.363,0.493,0.648,0.858,0.858
				c0.363,0.206,0.756,0.31,1.17,0.31c0.648,0,1.199-0.229,1.651-0.685C273.048,49.867,273.272,49.304,273.272,48.654z
				 M273.059,42.357c0-0.624-0.2-1.142-0.598-1.554c-0.393-0.411-0.9-0.618-1.519-0.618c-0.612,0-1.113,0.207-1.506,0.618
				c-0.394,0.412-0.592,0.93-0.592,1.554c0,0.632,0.196,1.15,0.586,1.553c0.391,0.404,0.894,0.607,1.512,0.607
				c0.625,0,1.133-0.203,1.527-0.605C272.861,43.513,273.059,42.998,273.059,42.357z"/>
		</g>
	</g>
	<polygon fill="#3AAE36" points="94.561,14.024 78.719,14.024 78.46,14.024 78.2,14.024 71.38,14.024 71.38,17.376 71.38,17.632 
		71.38,20.622 82.645,20.622 94.561,20.622 	"/>
	<linearGradient id="SVGID_1_" gradientUnits="userSpaceOnUse" x1="88.3823" y1="26.6733" x2="88.3823" y2="18.3794">
		<stop  offset="0" style="stop-color:#FFFFFF"/>
		<stop  offset="1" style="stop-color:#686767"/>
	</linearGradient>
	<polygon fill="url(#SVGID_1_)" points="94.564,20.622 94.561,20.622 82.2,28.916 	"/>
	<linearGradient id="SVGID_2_" gradientUnits="userSpaceOnUse" x1="95.2744" y1="26.6733" x2="95.2744" y2="18.3753">
		<stop  offset="0" style="stop-color:#FFFFFF"/>
		<stop  offset="1" style="stop-color:#686767"/>
	</linearGradient>
	<rect x="95.273" y="28.916" fill="url(#SVGID_2_)" width="0.002" height="6.51"/>
	<linearGradient id="SVGID_3_" gradientUnits="userSpaceOnUse" x1="82.7993" y1="20.6216" x2="82.7993" y2="35.4253">
		<stop  offset="0" style="stop-color:#17522C"/>
		<stop  offset="0" style="stop-color:#18562D"/>
		<stop  offset="0.0174" style="stop-color:#195A2D"/>
		<stop  offset="0.1629" style="stop-color:#207332"/>
		<stop  offset="0.3136" style="stop-color:#278835"/>
		<stop  offset="0.4686" style="stop-color:#2F9936"/>
		<stop  offset="0.6299" style="stop-color:#35A537"/>
		<stop  offset="0.8013" style="stop-color:#38AD36"/>
		<stop  offset="1" style="stop-color:#3AAE36"/>
	</linearGradient>
	<polygon fill="url(#SVGID_3_)" points="82.2,28.916 94.561,20.622 82.645,20.622 70.325,28.916 70.325,35.425 95.273,35.425 
		95.273,28.916 	"/>
</g>
</svg>
